<svg width="1488" height="363" viewBox="0 0 1488 363" fill="none" xmlns="http://www.w3.org/2000/svg">
<path d="M14.0625 291V72.8182H108.239C124.432 72.8182 138.601 76.0142 150.746 82.4062C162.891 88.7983 172.337 97.7827 179.084 109.359C185.831 120.936 189.205 134.466 189.205 149.949C189.205 165.574 185.724 179.104 178.764 190.538C171.875 201.973 162.18 210.78 149.68 216.959C137.251 223.138 122.727 226.227 106.108 226.227H49.858V180.205H94.1761C101.136 180.205 107.067 178.997 111.967 176.582C116.939 174.097 120.739 170.581 123.366 166.036C126.065 161.49 127.415 156.128 127.415 149.949C127.415 143.699 126.065 138.372 123.366 133.969C120.739 129.494 116.939 126.085 111.967 123.741C107.067 121.327 101.136 120.119 94.1761 120.119H73.2955V291H14.0625ZM211.79 291V127.364H268.892V158.472H270.597C273.58 146.966 278.303 138.55 284.766 133.223C291.3 127.896 298.935 125.233 307.67 125.233C310.227 125.233 312.749 125.446 315.234 125.872C317.791 126.227 320.241 126.76 322.585 127.47V177.648C319.673 176.653 316.087 175.908 311.825 175.411C307.564 174.913 303.906 174.665 300.852 174.665C295.099 174.665 289.915 175.979 285.298 178.607C280.753 181.163 277.166 184.786 274.538 189.473C271.911 194.089 270.597 199.523 270.597 205.773V291H211.79ZM341.868 291V127.364H400.675V291H341.868ZM371.271 110.318C363.317 110.318 356.499 107.69 350.817 102.435C345.135 97.179 342.294 90.858 342.294 83.4716C342.294 76.0852 345.135 69.7642 350.817 64.5085C356.499 59.2528 363.317 56.625 371.271 56.625C379.297 56.625 386.115 59.2528 391.726 64.5085C397.408 69.7642 400.249 76.0852 400.249 83.4716C400.249 90.858 397.408 97.179 391.726 102.435C386.115 107.69 379.297 110.318 371.271 110.318ZM509.473 293.983C491.717 293.983 476.518 290.467 463.876 283.436C451.234 276.334 441.539 266.462 434.792 253.82C428.045 241.107 424.672 226.369 424.672 209.608C424.672 192.847 428.045 178.145 434.792 165.503C441.539 152.79 451.234 142.918 463.876 135.886C476.518 128.784 491.717 125.233 509.473 125.233C525.524 125.233 539.409 128.145 551.127 133.969C562.917 139.722 572.044 147.889 578.507 158.472C584.97 168.983 588.237 181.341 588.308 195.545H533.762C532.981 186.952 530.495 180.418 526.305 175.943C522.186 171.398 516.859 169.125 510.325 169.125C505.211 169.125 500.737 170.616 496.902 173.599C493.066 176.511 490.083 180.95 487.953 186.916C485.822 192.811 484.757 200.233 484.757 209.182C484.757 218.131 485.822 225.588 487.953 231.554C490.083 237.449 493.066 241.888 496.902 244.871C500.737 247.783 505.211 249.239 510.325 249.239C514.657 249.239 518.493 248.244 521.831 246.256C525.169 244.196 527.868 241.213 529.927 237.307C532.058 233.33 533.336 228.5 533.762 222.818H588.308C588.095 237.236 584.792 249.807 578.4 260.531C572.008 271.185 562.953 279.423 551.234 285.247C539.586 291.071 525.666 293.983 509.473 293.983ZM690.98 293.983C673.509 293.983 658.452 290.645 645.81 283.969C633.239 277.222 623.544 267.562 616.726 254.991C609.979 242.349 606.605 227.222 606.605 209.608C606.605 192.705 610.014 177.932 616.832 165.29C623.651 152.648 633.274 142.811 645.703 135.78C658.132 128.749 672.798 125.233 689.702 125.233C702.06 125.233 713.246 127.151 723.26 130.986C733.274 134.821 741.832 140.396 748.935 147.712C756.037 154.956 761.506 163.763 765.341 174.132C769.176 184.501 771.094 196.185 771.094 209.182V222.818H624.929V190.432H716.974C716.903 185.744 715.696 181.625 713.352 178.074C711.08 174.452 707.99 171.646 704.084 169.658C700.249 167.598 695.881 166.568 690.98 166.568C686.222 166.568 681.854 167.598 677.876 169.658C673.899 171.646 670.703 174.416 668.288 177.967C665.945 181.518 664.702 185.673 664.56 190.432V225.375C664.56 230.631 665.661 235.318 667.862 239.438C670.064 243.557 673.224 246.788 677.344 249.132C681.463 251.476 686.435 252.648 692.259 252.648C696.307 252.648 700 252.08 703.338 250.943C706.747 249.807 709.659 248.173 712.074 246.043C714.489 243.841 716.264 241.213 717.401 238.159H771.094C769.247 249.523 764.879 259.395 757.99 267.776C751.101 276.085 741.974 282.548 730.611 287.165C719.318 291.71 706.108 293.983 690.98 293.983ZM997.931 154.636H937.846C937.42 149.665 936.284 145.155 934.437 141.107C932.662 137.058 930.176 133.578 926.98 130.666C923.855 127.683 920.055 125.411 915.581 123.848C911.106 122.214 906.028 121.398 900.346 121.398C890.403 121.398 881.987 123.812 875.098 128.642C868.279 133.472 863.095 140.396 859.544 149.416C856.064 158.436 854.324 169.267 854.324 181.909C854.324 195.261 856.099 206.447 859.65 215.467C863.272 224.416 868.493 231.163 875.311 235.709C882.129 240.183 890.332 242.42 899.92 242.42C905.389 242.42 910.289 241.746 914.622 240.396C918.954 238.976 922.718 236.952 925.914 234.324C929.11 231.696 931.703 228.536 933.691 224.842C935.751 221.078 937.136 216.852 937.846 212.165L997.931 212.591C997.221 221.824 994.629 231.234 990.154 240.822C985.68 250.339 979.324 259.146 971.085 267.243C962.917 275.268 952.797 281.732 940.723 286.632C928.649 291.533 914.622 293.983 898.642 293.983C878.613 293.983 860.645 289.686 844.735 281.092C828.897 272.499 816.362 259.857 807.129 243.166C797.967 226.476 793.386 206.057 793.386 181.909C793.386 157.619 798.074 137.165 807.449 120.545C816.824 103.855 829.466 91.2486 845.375 82.7258C861.284 74.1321 879.039 69.8352 898.642 69.8352C912.42 69.8352 925.098 71.7173 936.674 75.4815C948.251 79.2457 958.407 84.75 967.143 91.9943C975.879 99.1676 982.91 108.01 988.237 118.521C993.564 129.033 996.795 141.071 997.931 154.636ZM1084.46 72.8182V291H1025.66V72.8182H1084.46ZM1220.53 219.409V127.364H1279.34V291H1223.52V259.892H1221.81C1218.26 270.332 1212.05 278.5 1203.17 284.395C1194.29 290.219 1183.74 293.131 1171.53 293.131C1160.09 293.131 1150.08 290.503 1141.49 285.247C1132.96 279.991 1126.32 272.747 1121.56 263.514C1116.88 254.281 1114.5 243.699 1114.43 231.767V127.364H1173.23V219.409C1173.3 227.506 1175.36 233.862 1179.41 238.479C1183.53 243.095 1189.28 245.403 1196.67 245.403C1201.57 245.403 1205.8 244.374 1209.35 242.314C1212.97 240.183 1215.74 237.2 1217.66 233.365C1219.65 229.459 1220.61 224.807 1220.53 219.409ZM1308.4 291V72.8182H1367.21V155.915H1368.06C1370.19 150.375 1373.31 145.297 1377.43 140.68C1381.55 135.993 1386.67 132.264 1392.77 129.494C1398.88 126.653 1405.98 125.233 1414.08 125.233C1424.88 125.233 1435.14 128.109 1444.87 133.862C1454.67 139.615 1462.62 148.67 1468.73 161.028C1474.91 173.386 1478 189.437 1478 209.182C1478 228.074 1475.05 243.734 1469.16 256.163C1463.33 268.592 1455.52 277.861 1445.72 283.969C1435.99 290.077 1425.3 293.131 1413.65 293.131C1405.98 293.131 1399.13 291.888 1393.09 289.402C1387.13 286.845 1382.01 283.401 1377.75 279.068C1373.56 274.665 1370.33 269.693 1368.06 264.153H1366.78V291H1308.4ZM1365.93 209.182C1365.93 217.136 1366.96 224.026 1369.02 229.849C1371.15 235.602 1374.13 240.077 1377.97 243.273C1381.87 246.398 1386.52 247.96 1391.92 247.96C1397.32 247.96 1401.9 246.433 1405.66 243.379C1409.5 240.254 1412.41 235.815 1414.4 230.062C1416.46 224.239 1417.49 217.278 1417.49 209.182C1417.49 201.085 1416.46 194.161 1414.4 188.408C1412.41 182.584 1409.5 178.145 1405.66 175.091C1401.9 171.966 1397.32 170.403 1391.92 170.403C1386.52 170.403 1381.87 171.966 1377.97 175.091C1374.13 178.145 1371.15 182.584 1369.02 188.408C1366.96 194.161 1365.93 201.085 1365.93 209.182Z" fill="#20242C"/>
<circle cx="376" cy="62" r="50" fill="url(#paint0_linear_220_23)"/>
<defs>
<linearGradient id="paint0_linear_220_23" x1="376" y1="12" x2="376" y2="112" gradientUnits="userSpaceOnUse">
<stop stop-color="#F43F5D"/>
<stop offset="1" stop-color="#E3224B"/>
</linearGradient>
</defs>
</svg>
